<svg width="141" height="135" viewBox="0 0 141 135" fill="none" xmlns="http://www.w3.org/2000/svg">
<path d="M91.6677 2.35263L98.3615 4.92213L104.75 8.17726L110.763 12.0823L116.335 16.5946L121.405 21.6646L125.918 27.2367L129.823 33.25L133.078 39.6385L135.647 46.3323L137.503 53.258L138.625 60.3398L139 67.5L138.625 74.6602L137.503 81.742L135.647 88.6677L133.078 95.3615L129.823 101.75L125.918 107.763L121.405 113.335L116.335 118.405L110.763 122.918L104.75 126.823L98.3615 130.078L91.6677 132.647M49.3323 132.647L42.6385 130.078L36.25 126.823L30.2367 122.918L24.6646 118.405L19.5946 113.335L15.0823 107.763L11.1773 101.75L7.92213 95.3615L5.35263 88.6677L3.49689 81.742L2.37525 74.6602L2 67.5L2.37525 60.3398L3.49689 53.258L5.35263 46.3323L7.92213 39.6385L11.1773 33.25L15.0823 27.2367L19.5946 21.6646L24.6646 16.5946L30.2367 12.0823L36.25 8.17726L42.6385 4.92213L49.3323 2.35263" stroke="white" stroke-opacity="0.14902" stroke-width="3" stroke-linecap="round"/>
</svg>
